<svg width="50" height="43" viewBox="0 0 50 43" fill="none" xmlns="http://www.w3.org/2000/svg">
<path d="M48.1518 33.51C47.272 35.0124 46.2307 36.3952 45.0242 37.6666C43.3796 39.3998 42.033 40.5995 40.9953 41.2658C39.3867 42.3593 37.663 42.9193 35.8174 42.9512C34.4924 42.9512 32.8944 42.6725 31.0345 42.1071C29.1683 41.5444 27.4533 41.2657 25.8852 41.2657C24.2407 41.2657 22.4768 41.5444 20.5902 42.1071C18.7008 42.6725 17.1786 42.9671 16.0148 42.9963C14.2449 43.0521 12.4808 42.476 10.7199 41.2657C9.59592 40.5411 8.19016 39.2989 6.50603 37.5392C4.69916 35.66 3.21367 33.4808 2.04987 30.9965C0.80351 28.3131 0.178711 25.7146 0.178711 23.1989C0.178711 20.3172 1.02112 17.8317 2.70843 15.749C4.03452 14.076 5.79867 12.7563 8.00666 11.7875C10.2146 10.8187 12.6004 10.325 15.1696 10.2935C16.5754 10.2935 18.4189 10.6149 20.7098 11.2466C22.9943 11.8804 24.4611 12.2019 25.1042 12.2019C25.585 12.2019 27.2146 11.826 29.9769 11.0767C32.5893 10.3818 34.794 10.0941 36.6002 10.2074C41.4944 10.4994 45.1714 11.9255 47.6167 14.4949C43.2396 16.4553 41.0743 19.2011 41.1174 22.7235C41.1569 25.4672 42.5034 27.7504 45.1498 29.5632C46.3492 30.4046 47.6885 31.0549 49.1787 31.5168C48.8556 32.2095 48.5144 32.873 48.1518 33.51ZM36.9269 0.860255C36.9269 3.01072 35.864 5.01865 33.7455 6.87715C31.1889 9.08655 28.0965 10.3632 24.743 10.1618C24.6981 9.89142 24.6755 9.61929 24.6755 9.3469C24.6755 7.28246 25.8913 5.07304 28.0505 3.26659C29.1285 2.35193 30.4994 1.59142 32.1619 0.984742C33.8209 0.387118 35.3901 0.0566114 36.8659 0C36.909 0.287475 36.9269 0.575025 36.9269 0.860255Z" fill="#677483"/>
</svg>
