<svg width="59" height="43" viewBox="0 0 59 43" fill="none" xmlns="http://www.w3.org/2000/svg">
<path d="M58.1787 21.5C58.1787 9.62545 45.1955 0 29.1787 0C28.742 0 28.3076 0.00818637 27.8752 0.0228788L21.9434 12.1101H27.1099C30.1834 12.1101 31.8398 13.8646 30.7877 16.0075L23.4708 30.9153L17.3271 30.9145L25.179 14.9356H20.5594L12.7075 30.9145H6.56168L15.7942 12.1101H15.7953L21.3489 0.793906C9.13669 3.32668 0.178711 11.6374 0.178711 21.5C0.178711 31.6552 9.677 40.1654 22.4462 42.4162L27.8278 31.4517H27.8322L37.3261 12.1101H48.6418C51.7186 12.1101 53.374 13.8646 52.3219 16.0075L45.8925 29.1011C45.4029 30.0985 43.8314 30.9145 42.4 30.9145H34.2438L28.3174 42.9902C28.6031 42.9959 28.8909 43 29.1787 43C45.1955 43 58.1787 33.3738 58.1787 21.5Z" fill="#677483"/>
<path d="M46.7253 14.9243H42.108L35.6411 28.0783H40.2585L46.7254 14.9243" fill="#677483"/>
</svg>
