<svg width="21" height="20" viewBox="0 0 21 20" fill="none" xmlns="http://www.w3.org/2000/svg">
<path fill-rule="evenodd" clip-rule="evenodd" d="M6.8044 0.0596729C7.87107 0.0116031 8.2119 0 10.9277 0C13.6436 0 13.9844 0.0116031 15.0511 0.0596729C16.6761 0.133435 18.1036 0.529597 19.2494 1.66918C20.3952 2.80877 20.7936 4.22849 20.8677 5.84463C20.9161 6.90549 20.9277 7.24446 20.9277 9.94549C20.9277 12.6465 20.9161 12.9855 20.8677 14.0463C20.7936 15.6625 20.3952 17.0822 19.2494 18.2218C18.1036 19.3614 16.6761 19.7575 15.0511 19.8313C13.9844 19.8794 13.6436 19.891 10.9277 19.891C8.2119 19.891 7.87107 19.8794 6.8044 19.8313C5.1794 19.7575 3.7519 19.3614 2.60607 18.2218C1.46023 17.0822 1.0619 15.6625 0.987734 14.0463C0.939401 12.9855 0.927734 12.6465 0.927734 9.94549C0.927734 7.24446 0.939401 6.90549 0.987734 5.84463C1.0619 4.22849 1.46023 2.80877 2.60607 1.66918C3.7519 0.529597 5.1794 0.133435 6.8044 0.0596729ZM14.9677 1.85001C13.9135 1.80194 13.5968 1.79199 10.9268 1.79199C8.25685 1.79199 7.94018 1.80194 6.88602 1.85001C5.74768 1.90139 4.69185 2.12848 3.87935 2.93655C3.06685 3.74462 2.83852 4.7947 2.78685 5.92683C2.73852 6.97525 2.72852 7.29019 2.72852 9.94564C2.72852 12.6011 2.73852 12.916 2.78685 13.9644C2.83852 15.0966 3.06685 16.1467 3.87935 16.9547C4.69185 17.7628 5.74768 17.9899 6.88602 18.0413C7.94018 18.0893 8.25685 18.0993 10.9268 18.0993C13.5968 18.0993 13.9135 18.0893 14.9677 18.0413C16.106 17.9899 17.1618 17.7628 17.9743 16.9547C18.7868 16.1467 19.0152 15.0966 19.0668 13.9644C19.1152 12.916 19.1252 12.6011 19.1252 9.94564C19.1252 7.29019 19.1152 6.97525 19.0668 5.92683C19.0152 4.7947 18.7868 3.74462 17.9743 2.93655C17.1618 2.12848 16.106 1.90139 14.9677 1.85001ZM5.79102 9.9449C5.79102 7.12453 8.09018 4.83789 10.926 4.83789C13.7618 4.83789 16.061 7.12453 16.061 9.9449C16.061 12.7653 13.7618 15.0519 10.926 15.0519C8.09018 15.0519 5.79102 12.7653 5.79102 9.9449ZM7.5918 9.94504C7.5918 11.7758 9.08429 13.2602 10.9251 13.2602C12.766 13.2602 14.2585 11.7758 14.2585 9.94504C14.2585 8.11425 12.766 6.62988 10.9251 6.62988C9.08429 6.62988 7.5918 8.11425 7.5918 9.94504ZM17.4644 4.63682C17.4644 5.29595 16.9272 5.83028 16.2645 5.83028C15.6017 5.83028 15.0645 5.29595 15.0645 4.63682C15.0645 3.97769 15.6017 3.44336 16.2645 3.44336C16.9272 3.44336 17.4644 3.97769 17.4644 4.63682Z" fill="#0A142F"/>
</svg>
