<svg width="154" height="26" viewBox="0 0 154 26" fill="none" xmlns="http://www.w3.org/2000/svg">
<path d="M64.3049 5.57683C61.5422 5.57683 58.4003 6.63112 56.4805 8.74225L56.4818 8.73792L56.4805 8.73894L56.4818 5.90841H49.8926V25.6641H56.4805V14.4226C56.4805 12.3996 58.3861 10.249 61.9137 10.249C64.6399 10.249 67.4613 11.8102 67.4613 14.4226V25.6641H74.0505V13.4175C74.0505 8.87381 70.1019 5.57683 64.3049 5.57683ZM120.882 5.90917L114.925 19.3663L108.968 5.90917H101.441L111.314 25.6585H118.535L128.408 5.90917H120.882ZM30.2214 11.8606C31.3434 10.62 33.1309 9.89197 35.2896 9.89197C37.664 9.89197 39.4654 11.0084 40.397 12.6561L28.8849 16.5882C28.5706 14.5702 29.1977 12.992 30.2214 11.8606ZM42.8802 19.59C40.1071 21.2797 38.5227 21.6828 35.9937 21.6828C33.7179 21.6828 31.9359 21.1011 30.6798 20.0809L47.5253 14.3277C47.1574 12.1835 46.169 10.2683 44.6482 8.81172C42.4348 6.6955 39.1588 5.57581 35.1703 5.57581C27.9252 5.57581 22.4617 9.97645 22.4617 15.7884C22.4617 21.7513 27.9379 26 35.8963 26C40.3553 26 44.9144 24.2602 47.0471 22.2271L42.8802 19.59ZM21.8336 20.6827H6.85786V0H0.178711V25.6638H21.8336V20.6827ZM140.239 10.2246C136.56 10.2246 133.887 12.5204 133.887 15.7864C133.887 18.9047 136.718 21.3482 140.328 21.3482C144.009 21.3482 146.679 18.9892 146.679 15.7864C146.679 12.668 143.85 10.2246 140.239 10.2246ZM140.239 25.9969C133.033 25.9969 127.387 21.577 127.387 15.7864C127.387 10.0609 133.072 5.57606 140.328 5.57606C147.534 5.57606 153.179 9.99579 153.179 15.7864C153.179 21.5108 147.495 25.9969 140.239 25.9969ZM89.5085 10.2246C85.8287 10.2246 83.1582 12.5204 83.1582 15.7864C83.1582 18.9047 85.9873 21.3482 89.5981 21.3482C93.2778 21.3482 95.9484 18.9892 95.9484 15.7864C95.9484 12.668 93.1193 10.2246 89.5085 10.2246ZM89.5085 25.9969C82.3023 25.9969 76.6574 21.577 76.6574 15.7864C76.6574 10.0609 82.3413 5.57606 89.5981 5.57606C96.803 5.57606 102.449 9.99579 102.449 15.7864C102.449 21.5108 96.7641 25.9969 89.5085 25.9969Z" fill="#677483"/>
</svg>
