<svg width="194" height="26" viewBox="0 0 194 26" fill="none" xmlns="http://www.w3.org/2000/svg">
<path d="M12.9892 18.2154C13.2548 18.8015 13.1706 19.5526 13.0411 20.0079C12.8144 20.8159 12.1926 21.6411 10.3533 21.6411C8.63056 21.6411 7.58136 20.7647 7.58136 19.4445V17.0943H0.178711V18.9608C0.178711 24.3668 5.01666 26 10.2043 26C15.1913 26 19.2974 24.5091 19.9515 20.4631C20.2883 18.369 20.0422 16.9976 19.9256 16.4911C18.7598 11.4152 8.29378 9.90152 7.51012 7.06195C7.4013 6.6432 7.39248 6.20917 7.48421 5.78727C7.67851 5.00767 8.28082 4.15978 10.0036 4.15978C11.6227 4.15978 12.5618 5.03612 12.5618 6.35632V7.85862H19.4463V6.15146C19.4463 0.870658 14.0514 0.0455322 10.1525 0.0455322C5.24334 0.0455322 1.23438 1.47385 0.502536 5.42877C0.308241 6.50997 0.275859 7.47736 0.567302 8.69513C1.76546 13.6459 11.5644 15.0799 12.9892 18.2154Z" fill="#677483"/>
<path d="M29.7117 0.819411L24.5952 25.0553H32.0497L35.8255 3.06148H35.9809L39.6531 25.0553H47.0687L41.9846 0.813721L29.7117 0.819411ZM71.388 0.819411L67.9878 19.3478H67.8259L64.4322 0.819411H53.1825L52.5737 25.0553H59.4777L59.6461 3.26634H59.8015L64.4063 25.0553H71.4074L76.0187 3.27203H76.1677L76.3425 25.0553H83.24L82.6312 0.813721L71.388 0.819411Z" fill="#677483"/>
<path d="M102.669 18.1698C102.934 18.756 102.85 19.5071 102.721 19.9624C102.494 20.7704 101.872 21.5955 100.033 21.5955C98.3102 21.5955 97.261 20.7192 97.261 19.399V17.0488H89.8584V18.9153C89.8584 24.3213 94.6964 25.9545 99.884 25.9545C104.871 25.9545 108.977 24.4636 109.631 20.4176C109.968 18.3235 109.722 16.9521 109.605 16.4456C108.44 11.3697 97.9735 9.85599 97.1898 7.01642C97.081 6.59766 97.0722 6.16364 97.1639 5.74174C97.3582 4.96214 97.9605 4.11425 99.6833 4.11425C101.302 4.11425 102.241 4.99059 102.241 6.31079V7.81309H109.126V6.10593C109.126 0.825126 103.731 0 99.8322 0C94.923 0 90.9141 1.42832 90.1822 5.38323C89.9879 6.46443 89.9555 7.43182 90.247 8.6496C91.4451 13.6004 101.244 15.0344 102.669 18.1698Z" fill="#677483"/>
<path d="M125.823 21.4249C127.74 21.4249 128.329 20.264 128.465 19.6722C128.524 19.4104 128.53 19.0576 128.53 18.7446V0.819463H135.512V18.1926C135.513 18.7243 135.491 19.2558 135.447 19.786C134.961 24.3099 130.894 25.7781 125.823 25.7781C120.745 25.7781 116.678 24.3099 116.192 19.786C116.173 19.547 116.121 18.6365 116.128 18.1926V0.813773H123.109V18.7389C123.103 19.0576 123.116 19.4104 123.174 19.6722C123.303 20.264 123.899 21.4249 125.823 21.4249ZM159.553 0.819463L159.928 19.8429H159.779L153.432 0.819463H143.199V24.7993H149.98L149.605 5.11581H149.754L156.56 24.7993H166.385V0.819463H159.553ZM183.354 21.1745C185.348 21.1745 186.048 20.0648 186.171 19.4104C186.229 19.143 186.236 18.8015 186.236 18.4999V14.9718H183.406V11.4437H193.179V17.9422C193.179 18.3975 193.166 18.7275 193.081 19.5356C192.628 23.9514 188.269 25.5277 183.38 25.5277C178.49 25.5277 174.138 23.9514 173.678 19.5356C173.6 18.7275 173.581 18.3975 173.581 17.9422V7.74483C173.581 7.31235 173.645 6.54982 173.697 6.15148C174.312 1.61614 178.49 0.159363 183.38 0.159363C188.269 0.159363 192.557 1.60476 193.062 6.14579C193.153 6.91971 193.127 7.73914 193.127 7.73914V8.55289H186.171V7.19285C186.171 7.19285 186.171 6.6238 186.087 6.27099C185.957 5.73608 185.439 4.50692 183.328 4.50692C181.32 4.50692 180.731 5.67348 180.582 6.27099C180.498 6.58965 180.465 7.02213 180.465 7.41478V18.4942C180.465 18.8015 180.478 19.143 180.53 19.4161C180.659 20.0648 181.359 21.1745 183.354 21.1745Z" fill="#677483"/>
</svg>
