<svg width="20" height="16" viewBox="0 0 20 16" fill="none" xmlns="http://www.w3.org/2000/svg">
<path d="M17.962 4.05368L17.974 4.56028C17.974 9.7334 14.017 15.6933 6.77996 15.6933C4.55876 15.6933 2.49131 15.0457 0.749512 13.9351C1.05716 13.9708 1.37072 13.9907 1.68835 13.9907C3.53206 13.9907 5.22793 13.3649 6.57423 12.316C4.85241 12.2842 3.40019 11.1518 2.89883 9.59832C3.14051 9.644 3.38422 9.6659 3.63989 9.6659C3.99945 9.6659 4.34698 9.62022 4.67657 9.53082C2.87682 9.16923 1.52053 7.58991 1.52053 5.69469V5.64503C2.05185 5.93904 2.65709 6.11385 3.30228 6.13574C2.2476 5.43447 1.55247 4.23653 1.55247 2.87966C1.55247 2.16251 1.74624 1.49104 2.08379 0.912947C4.02337 3.28098 6.92373 4.83847 10.1936 5.00139C10.1257 4.71529 10.0918 4.41533 10.0918 4.10942C10.0918 1.94999 11.8536 0.197754 14.0269 0.197754C15.1575 0.197754 16.1802 0.672524 16.8993 1.4334C17.7941 1.25656 18.6371 0.930788 19.3981 0.483792C19.1045 1.39765 18.4813 2.16447 17.6683 2.64917C18.4613 2.55579 19.2224 2.3432 19.9275 2.03331C19.4002 2.81601 18.731 3.50539 17.962 4.05368Z" fill="#0A142F"/>
</svg>
